HIERARCHY
ROOT Hips
{
	OFFSET 0.000000 0.000000 0.000000
	CHANNELS 6 Xposition Yposition Zposition Xrotation Yrotation Zrotation
	JOINT LeftUpLeg_virtual
	{
		OFFSET 0.000000 0.000000 0.000000
		CHANNELS 3 Xrotation Yrotation Zrotation
		JOINT LeftUpLeg
		{
			OFFSET 10.205400 -3.823500 0.155100
			CHANNELS 3 Xrotation Yrotation Zrotation
			JOINT LeftLeg
			{
				OFFSET 0.708757 -12.982077 0.567790
				CHANNELS 3 Xrotation Yrotation Zrotation
				JOINT LeftFoot
				{
					OFFSET -0.708756 -10.717838 -2.184338
					CHANNELS 3 Xrotation Yrotation Zrotation
					JOINT LeftToeBase
					{
						OFFSET 0.108149 -7.191104 7.560241
						CHANNELS 3 Xrotation Yrotation Zrotation
						JOINT LeftToe_End
						{
							OFFSET 0.070230 0.081724 4.490308
							CHANNELS 3 Xrotation Yrotation Zrotation
							End Site
							{
								OFFSET 0 0 0
							}
						}
					}
				}
			}
		}
	}
	JOINT RightUpLeg_virtual
	{
		OFFSET 0.000000 0.000000 0.000000
		CHANNELS 3 Xrotation Yrotation Zrotation
		JOINT RightUpLeg
		{
			OFFSET -10.205400 -3.823500 0.005500
			CHANNELS 3 Xrotation Yrotation Zrotation
			JOINT RightLeg
			{
				OFFSET -0.708756 -12.982134 0.610632
				CHANNELS 3 Xrotation Yrotation Zrotation
				JOINT RightFoot
				{
					OFFSET 0.708754 -10.717769 -1.945823
					CHANNELS 3 Xrotation Yrotation Zrotation
					JOINT RightToeBase
					{
						OFFSET -0.108140 -7.191069 7.372968
						CHANNELS 3 Xrotation Yrotation Zrotation
						JOINT RightToe_End
						{
							OFFSET -0.070227 0.081735 4.479403
							CHANNELS 3 Xrotation Yrotation Zrotation
							End Site
							{
								OFFSET 0 0 0
							}
						}
					}
				}
			}
		}
	}
	JOINT Spine_virtual
	{
		OFFSET 0.000000 0.000000 0.000000
		CHANNELS 3 Xrotation Yrotation Zrotation
		JOINT Spine
		{
			OFFSET 0.000000 6.876099 0.125700
			CHANNELS 3 Xrotation Yrotation Zrotation
			JOINT Spine1
			{
				OFFSET 0.000000 5.730043 0.104720
				CHANNELS 3 Xrotation Yrotation Zrotation
				JOINT Spine1_split
				{
					OFFSET 0.000000 5.730043 0.104720
					CHANNELS 3 Xrotation Yrotation Zrotation
					JOINT Spine2
					{
						OFFSET 0.000000 5.730043 0.104720
						CHANNELS 3 Xrotation Yrotation Zrotation
						JOINT Neck_virtual
						{
							OFFSET 0.000000 0.000000 0.000000
							CHANNELS 3 Xrotation Yrotation Zrotation
							JOINT Neck
							{
								OFFSET 0.000000 10.314075 0.188496
								CHANNELS 3 Xrotation Yrotation Zrotation
								JOINT Head
								{
									OFFSET 0.000000 7.643700 -2.377400
									CHANNELS 3 Xrotation Yrotation Zrotation
									JOINT HeadTop_End
									{
										OFFSET 0.000000 43.788605 -13.619600
										CHANNELS 3 Xrotation Yrotation Zrotation
										End Site
										{
											OFFSET 0 0 0
										}
									}
								}
							}
						}
						JOINT LeftShoulder_virtual
						{
							OFFSET 0.000000 0.000000 0.000000
							CHANNELS 3 Xrotation Yrotation Zrotation
							JOINT LeftShoulder
							{
								OFFSET 2.196100 4.412489 0.087492
								CHANNELS 3 Xrotation Yrotation Zrotation
								JOINT LeftShoulder_split
								{
									OFFSET 2.196100 4.412489 0.087492
									CHANNELS 3 Xrotation Yrotation Zrotation
									JOINT LeftArm
									{
										OFFSET 8.771219 -2.981674 -0.026999
										CHANNELS 3 Xrotation Yrotation Zrotation
										JOINT LeftForeArm
										{
											OFFSET 8.512804 0.000000 -0.000000
											CHANNELS 3 Xrotation Yrotation Zrotation
											JOINT LeftHand
											{
												OFFSET 18.484802 0.000000 -0.000000
												CHANNELS 3 Xrotation Yrotation Zrotation
												End Site
												{
													OFFSET 0 0 0
												}
											}
										}
									}
								}
							}
						}
						JOINT RightShoulder_virtual
						{
							OFFSET 0.000000 0.000000 0.000000
							CHANNELS 3 Xrotation Yrotation Zrotation
							JOINT RightShoulder
							{
								OFFSET -2.196100 4.412496 0.070690
								CHANNELS 3 Xrotation Yrotation Zrotation
								JOINT RightShoulder_split
								{
									OFFSET -2.196100 4.412496 0.070690
									CHANNELS 3 Xrotation Yrotation Zrotation
									JOINT RightArm
									{
										OFFSET -8.771282 -2.981682 -0.094208
										CHANNELS 3 Xrotation Yrotation Zrotation
										JOINT RightForeArm
										{
											OFFSET -8.494598 0.000000 0.000000
											CHANNELS 3 Xrotation Yrotation Zrotation
											JOINT RightHand
											{
												OFFSET -18.483803 0.000000 0.000001
												CHANNELS 3 Xrotation Yrotation Zrotation
												End Site
												{
													OFFSET 0 0 0
												}
											}
										}
									}
								}
							}
						}
					}
				}
			}
		}
	}
}
MOTION
Frames: 11
Frame Time: 0.03333333
2.051815 32.125694 -3.933334 0.000000 0.000000 0.000000 18.878807 24.051787 3.487700 -35.606671 16.920260 13.541863 34.156465 -8.751439 -2.285882 11.243470 36.074693 -34.207636 1.779792 -0.246185 0.406892 0.000000 0.000000 0.000000 19.221629 23.160697 4.055018 -54.849499 -12.890187 -13.421228 33.843676 13.038632 -5.829279 -10.745044 -15.230608 11.343140 11.798744 5.561954 -10.593471 0.000000 0.000000 0.000000 17.921327 24.431906 5.241146 13.257176 -3.967712 2.009346 7.183153 0.830471 -2.383446 0.048037 -0.450392 0.129924 0.000000 0.000000 0.000000 7.980022 3.589347 -3.461178 -6.672263 3.461061 2.130805 -24.140863 9.067910 -14.122936 0.000000 0.000000 0.000000 8.150075 1.921723 -3.044341 3.489535 -0.953874 -11.260833 5.128001 -4.503100 -2.669143 -32.896090 4.509957 -49.682000 6.241085 -41.827942 -1.654370 0.000000 0.000000 0.000000 8.814371 2.418203 -2.979896 -0.043010 17.094702 4.110597 7.214536 4.155419 2.859505 -17.209693 -18.912582 58.118305 -16.181128 42.045955 7.982847 0.000000 0.000000 0.000000 
2.052963 32.506912 -2.719519 0.000000 0.000000 0.000000 18.740692 23.162753 3.448077 -36.187783 15.839569 12.780924 32.142518 -7.092224 -1.980162 11.467032 36.497778 -33.112675 2.255378 -0.340764 1.061500 0.000000 0.000000 0.000000 19.886721 22.032128 4.006607 -52.735054 -12.750082 -12.614489 33.035364 12.955097 -6.124914 -10.070095 -14.933855 12.043094 10.962202 5.775226 -10.248993 0.000000 0.000000 0.000000 19.234764 24.833905 4.352658 12.590726 -3.403288 2.389482 7.161147 1.093814 -2.177810 0.071918 -0.258131 0.138744 0.000000 0.000000 0.000000 7.952011 3.806676 -3.366837 -6.471482 3.017050 1.772257 -23.922415 8.396281 -13.689273 0.000000 0.000000 0.000000 8.098175 2.154656 -3.046438 3.447620 -0.441993 -11.141170 4.334534 -2.553442 -1.422181 -31.328319 6.050987 -49.065606 5.834570 -39.714323 -1.873777 0.000000 0.000000 0.000000 9.114671 2.707042 -2.939967 0.197356 16.979060 4.146431 5.241771 3.444122 2.097092 -17.726788 -21.690596 57.684793 -16.517931 41.451165 8.270347 0.000000 0.000000 0.000000 
2.101132 32.991528 -1.121517 0.000000 0.000000 0.000000 18.314408 22.962169 3.601201 -36.351435 15.077909 10.849866 28.791812 -5.533192 -1.200564 10.721870 36.570219 -31.265922 2.535751 -0.632586 2.107800 0.000000 0.000000 0.000000 19.917204 21.485509 3.980357 -48.563738 -13.081731 -11.540493 32.197764 12.594947 -6.458271 -11.434129 -14.915572 11.906376 8.494140 6.324160 -9.081343 0.000000 0.000000 0.000000 19.971746 25.295467 3.609988 12.103961 -2.159649 3.025723 7.273973 1.678443 -1.700071 0.013893 -0.185096 0.119348 0.000000 0.000000 0.000000 8.125161 4.338070 -2.997746 -6.837350 2.273931 1.158844 -23.507629 5.699459 -13.517977 0.000000 0.000000 0.000000 8.095799 2.717816 -2.787529 3.376620 0.183152 -11.319486 3.961239 -1.196286 -0.007336 -28.472711 7.944262 -48.256116 5.169444 -38.294279 -1.827842 0.000000 0.000000 0.000000 9.495268 3.304462 -2.598129 0.472830 16.971468 4.135334 3.330298 2.647349 1.435099 -19.836268 -23.632523 54.997793 -18.008274 40.832636 9.561671 0.000000 0.000000 0.000000 
2.281395 33.339478 0.594158 0.000000 0.000000 0.000000 17.482677 23.611158 3.874656 -36.719210 14.844882 8.373919 26.225439 -4.463862 -0.127626 10.173084 35.752383 -29.510621 1.899466 -1.088632 3.376673 0.000000 0.000000 0.000000 19.286882 21.432150 4.039256 -43.008755 -13.908184 -10.452643 32.057339 11.939015 -6.789294 -15.196288 -15.401341 10.575641 5.503661 7.048368 -7.521787 0.000000 0.000000 0.000000 19.550414 25.901336 3.204265 11.958679 -0.472206 3.676641 7.476521 2.465830 -1.065408 -0.028448 -0.253066 0.107996 0.000000 0.000000 0.000000 8.370807 5.078283 -2.390529 -7.642506 1.331405 0.346898 -22.743326 0.895072 -13.406839 0.000000 0.000000 0.000000 8.058398 3.499456 -2.322973 3.389609 0.854782 -11.596251 4.212152 -0.800610 1.152444 -25.086446 9.462665 -47.967507 4.411323 -37.605778 -1.468954 0.000000 0.000000 0.000000 9.867260 4.111186 -2.043415 0.674784 17.139462 3.977637 1.489650 1.937621 0.851476 -23.346452 -23.665634 50.812762 -20.081629 40.083744 11.324108 0.000000 0.000000 0.000000 
2.531416 33.421486 2.342690 0.000000 0.000000 0.000000 15.934809 24.714746 4.351948 -38.056588 15.360139 6.063192 26.174777 -3.815507 0.968727 9.907815 34.116132 -27.477255 0.424415 -1.615706 4.691838 0.000000 0.000000 0.000000 18.203929 21.788085 4.190657 -36.989364 -15.244772 -9.614815 33.514584 11.192524 -7.026848 -21.219163 -16.172510 8.334066 3.741947 7.806477 -6.285640 0.000000 0.000000 0.000000 18.059797 26.980991 3.110853 12.147367 1.347313 4.090825 7.674132 3.316031 -0.381691 -0.069557 -0.253341 0.065394 0.000000 0.000000 0.000000 8.522099 5.862371 -1.616725 -8.614617 0.286531 -0.562925 -21.514024 -5.994333 -13.171807 0.000000 0.000000 0.000000 7.886776 4.329076 -1.750361 3.512795 1.640696 -11.813336 4.211763 -1.061847 2.103562 -21.410662 10.380136 -48.446474 3.596134 -37.489822 -0.842053 0.000000 0.000000 0.000000 10.048316 4.981995 -1.382041 0.704690 17.514777 3.544169 0.773632 1.366587 0.383741 -27.849741 -21.193373 46.212688 -22.148487 39.337740 12.994719 0.000000 0.000000 0.000000 
2.845578 33.133213 3.906652 0.000000 0.000000 0.000000 13.852159 25.499514 4.932941 -40.384610 16.561682 4.587665 29.013681 -3.366332 1.962016 9.148459 32.206271 -24.464223 -0.698556 -2.125192 5.657486 0.000000 0.000000 0.000000 16.668136 22.667101 4.273835 -31.397775 -17.211366 -9.110397 36.820365 10.780265 -7.094891 -28.507044 -16.936894 6.125078 3.773563 8.611074 -6.060933 0.000000 0.000000 0.000000 15.738469 28.207445 3.310381 12.494503 3.002524 4.081476 7.729098 4.055880 0.257247 0.016982 -0.221803 -0.012060 0.000000 0.000000 0.000000 8.377814 6.522759 -0.784429 -9.453498 -0.685730 -1.494342 -19.775037 -14.420356 -12.391929 0.000000 0.000000 0.000000 7.511060 5.057344 -1.163529 3.737424 2.477060 -11.661068 3.887857 -1.798584 2.839163 -17.458414 10.666499 -49.444340 2.699589 -38.259506 -0.067058 0.000000 0.000000 0.000000 9.953312 5.765875 -0.726875 0.539807 18.035338 2.680370 1.002993 1.103074 -0.033594 -32.365722 -16.023091 42.589716 -23.598133 38.793384 14.056439 0.000000 0.000000 0.000000 
3.119323 32.602745 5.348001 0.000000 0.000000 0.000000 11.643367 25.822039 5.363005 -42.664749 18.019595 3.772117 33.371164 -2.935018 2.834163 6.715171 30.594176 -20.087265 -0.825750 -2.558563 6.143646 0.000000 0.000000 0.000000 15.037039 23.887996 4.231836 -26.341704 -19.733593 -8.708075 40.938429 10.931338 -7.120784 -35.675270 -17.807819 5.267759 4.396766 9.399906 -7.204663 0.000000 0.000000 0.000000 13.026076 29.224221 3.520491 12.724490 4.289939 3.658412 7.562683 4.567543 0.777149 0.174393 -0.165155 -0.089144 0.000000 0.000000 0.000000 7.853555 6.969497 0.011098 -9.768400 -1.476432 -2.358295 -17.504170 -23.344140 -10.751601 0.000000 0.000000 0.000000 6.904973 5.580161 -0.679178 4.047162 3.386497 -11.051115 3.674779 -2.874295 3.241659 -13.118558 10.647257 -50.392098 1.577343 -39.891047 0.583577 0.000000 0.000000 0.000000 9.553813 6.343071 -0.186682 0.241610 18.422525 1.302741 1.435152 0.733157 -0.078312 -36.253001 -8.879080 40.425318 -24.181200 38.770899 14.292330 0.000000 0.000000 0.000000 
3.373485 32.039696 6.638174 0.000000 0.000000 0.000000 9.854951 25.893322 5.323833 -43.835536 19.251240 3.637859 37.397946 -3.030401 3.560522 2.998417 29.004323 -15.524911 -0.480607 -2.903432 6.491106 0.000000 0.000000 0.000000 13.530731 25.302726 3.901053 -21.457362 -22.435312 -7.928444 44.452015 11.618561 -7.244347 -41.308120 -19.016748 6.221026 4.376186 10.040483 -9.447525 0.000000 0.000000 0.000000 10.561965 29.965341 3.482226 12.514147 5.072662 2.973002 7.159547 4.773915 1.113953 0.204070 -0.070242 -0.061867 0.000000 0.000000 0.000000 6.964400 7.111781 0.649062 -9.335192 -1.954645 -3.161649 -14.987429 -31.618476 -8.150653 0.000000 0.000000 0.000000 6.058598 5.825794 -0.373585 4.352812 4.292928 -10.001661 3.473300 -3.866265 3.176523 -8.209326 11.005182 -50.381746 0.194524 -42.553520 0.944215 0.000000 0.000000 0.000000 8.830312 6.636276 0.192806 -0.129365 18.432317 -0.523538 2.492808 0.513431 0.373470 -39.038213 -1.231343 39.703654 -23.887741 39.672146 13.753353 0.000000 0.000000 0.000000 
3.646278 31.631218 7.886271 0.000000 0.000000 0.000000 8.902262 25.784599 4.664441 -43.402270 19.938589 4.212913 39.556733 -3.944883 4.030358 -0.341772 27.119299 -12.480000 -0.542790 -3.229614 6.876181 0.000000 0.000000 0.000000 12.064042 26.260428 3.260412 -16.688573 -24.866928 -6.478154 45.981148 12.402198 -7.250734 -43.981446 -20.433390 8.101171 3.345652 10.488078 -11.870439 0.000000 0.000000 0.000000 8.567892 30.506862 3.129480 11.675222 5.304352 2.218503 6.550784 4.637041 1.252759 0.252717 0.021267 0.005652 0.000000 0.000000 0.000000 5.864580 6.962970 1.036276 -8.182491 -2.105759 -4.031742 -12.438869 -38.368110 -4.732981 0.000000 0.000000 0.000000 5.072703 5.768812 -0.277376 4.561166 4.871108 -8.599461 3.181445 -4.783755 2.635222 -3.341029 12.444057 -48.700348 -1.381106 -46.116341 0.952654 0.000000 0.000000 0.000000 7.910856 6.628746 0.379196 -0.475236 18.047411 -2.628213 3.805325 0.378562 1.206329 -40.012457 5.434773 39.898072 -22.756582 41.750955 12.628491 0.000000 0.000000 0.000000 
3.893603 31.521509 9.119111 0.000000 0.000000 0.000000 8.636519 25.665290 3.574976 -41.341766 20.057004 5.132932 39.314962 -5.114045 3.946595 -2.548493 25.441814 -10.749268 -1.222519 -3.563181 7.135623 0.000000 0.000000 0.000000 10.869469 26.879347 2.454493 -12.296802 -26.403867 -4.623755 45.273134 12.970564 -6.976452 -43.311135 -21.671770 9.965148 1.227218 10.658493 -13.428614 0.000000 0.000000 0.000000 7.247421 30.959759 2.433752 10.252455 5.072234 1.522711 5.822928 4.210082 1.170757 0.259195 0.063540 0.029266 0.000000 0.000000 0.000000 4.846126 6.568839 1.125072 -6.550509 -1.993023 -5.080705 -10.144131 -43.134738 -1.064810 0.000000 0.000000 0.000000 4.065336 5.463401 -0.393609 4.617000 4.936063 -7.200342 2.863262 -5.269892 2.037295 0.174362 15.107451 -45.188911 -2.950973 -49.960471 0.663651 0.000000 0.000000 0.000000 6.940038 6.332553 0.351028 -0.737336 17.390066 -4.768126 5.153824 -0.179826 2.386267 -38.703742 10.199226 40.127911 -21.026871 45.051153 11.169614 0.000000 0.000000 0.000000 
4.111898 31.711025 10.373095 0.000000 0.000000 0.000000 8.472328 25.602220 2.382324 -38.099584 19.508082 6.355446 37.426602 -6.299778 3.336180 -3.236762 24.465796 -10.481229 -1.741202 -3.762211 7.132847 0.000000 0.000000 0.000000 9.970031 27.430646 1.546344 -8.730221 -26.570491 -2.881405 43.283807 13.118054 -6.483080 -39.638282 -22.180168 10.646148 -1.276512 10.462416 -13.526046 0.000000 0.000000 0.000000 6.607565 31.384439 1.523344 8.426332 4.430537 0.921698 5.077059 3.522594 0.867921 0.149946 0.108000 0.065828 0.000000 0.000000 0.000000 4.095656 5.955294 0.935337 -4.915720 -1.671100 -6.383444 -8.538220 -45.699553 2.322821 0.000000 0.000000 0.000000 3.185215 4.936268 -0.665693 4.489285 4.276776 -5.970646 2.557635 -5.063534 1.500704 0.751522 18.075189 -39.931905 -4.175432 -53.673802 0.311569 0.000000 0.000000 0.000000 6.075434 5.759143 0.123360 -0.862412 16.653705 -6.685643 6.195616 -0.783443 3.506904 -35.106056 13.010509 39.791528 -18.818028 49.267056 9.498327 0.000000 0.000000 0.000000 
